<svg xmlns="http://www.w3.org/2000/svg" width="18" height="18" viewBox="0 0 18 18" fill="none">
<path d="M5.25 13.5H7.875H10.5" stroke="#196FE0" stroke-width="1.5" stroke-linecap="round" stroke-linejoin="round"/>
<path d="M5.25 10.5H5.625H6" stroke="#196FE0" stroke-width="1.5" stroke-linecap="round" stroke-linejoin="round"/>
<path d="M5.25 7.5H6.375H7.5" stroke="#196FE0" stroke-width="1.5" stroke-linecap="round" stroke-linejoin="round"/>
<path d="M5.25 1.5L12.375 1.5L15.75 4.875V14.25" stroke="#196FE0" stroke-width="1.5" stroke-linecap="round" stroke-linejoin="round"/>
<path d="M2.25 15V5.25C2.25 4.42157 2.92157 3.75 3.75 3.75H10.6265C10.7856 3.75 10.9382 3.81321 11.0507 3.92574L13.3243 6.19926C13.4368 6.31179 13.5 6.4644 13.5 6.62353V15C13.5 15.8284 12.8284 16.5 12 16.5H3.75C2.92157 16.5 2.25 15.8284 2.25 15Z" stroke="#196FE0" stroke-width="1.5" stroke-linecap="round" stroke-linejoin="round"/>
<path d="M10.5 3.75V6.15C10.5 6.48137 10.7686 6.75 11.1 6.75H13.5" stroke="#196FE0" stroke-width="1.5" stroke-linecap="round" stroke-linejoin="round"/>
</svg>